<svg id="shape" xmlns="http://www.w3.org/2000/svg" viewBox="0 0 500 200"><title>shape</title><path d="M496.31,95.34,465,83.15l-10-3.89-20-7.79-10-3.89-20-7.79L395,55.9l-20-7.79-10-3.89-20-7.79-10-3.89-20-7.79-10-3.89-20-7.79L275,9.18,255,1.39l-2.71-1a5,5,0,0,0-3.61,0L245,1.76,225,9.48l-10,3.86-20,7.73-10,3.86-20,7.72-10,3.87-20,7.72L125,48.1l-20,7.73L95,59.69,75,67.41,65,71.27,45,79,35,82.86,2.7,95.34a5,5,0,0,0,0,9.32L35,117.19l10,3.88,20,7.75,10,3.88,20,7.75,10,3.88,20,7.76L135,156l20,7.76,10,3.88,20,7.75,10,3.88L215,187l10,3.88,20,7.76,2.69,1a5,5,0,0,0,3.62,0l3.69-1.43,20-7.76,10-3.87,20-7.76L315,175l20-7.75,10-3.88,20-7.75,10-3.88,20-7.76,10-3.87,20-7.76,10-3.88,20-7.75,10-3.88,31.31-12.14a5,5,0,0,0,0-9.32ZM18.35,100,35,93.58v12.88ZM45,110.34V89.72L65,82V118.1ZM75,122V78.13l20-7.72v59.32Zm30,11.64V66.55l20-7.73v82.54Zm30,11.63V55l20-7.72V153Zm30,11.63V43.37l20-7.72v129Zm30,11.63V31.79l20-7.73v152.2Zm30,11.64V20.2l20-7.72V187.89Zm30,7.36V12.12l20,7.79V179.75Zm30-11.63V23.8l20,7.79V168.12Zm30-11.63V35.48l20,7.79V156.48Zm30-11.63V47.16L365,55v89.9ZM375,141V58.84l20,7.79v66.59Zm30-11.63V70.52l20,7.79v43.28Zm30-11.63V82.2L455,90v20Zm30-11.63V93.88L480.69,100Z"/></svg>