<svg id="shape" xmlns="http://www.w3.org/2000/svg" viewBox="0 0 500 200"><title>shape</title><path d="M465,25A104,104,0,0,0,435,7.05c-3.26-1.25-6.59-2.36-10-3.29A104.54,104.54,0,0,0,405,.3V0H95V.3A104.54,104.54,0,0,0,75,3.76c-3.41.93-6.74,2-10,3.29A104,104,0,0,0,35,25C13.56,43.3,0,70.14,0,100s13.56,56.7,35,75A104,104,0,0,0,65,193c3.26,1.25,6.59,2.36,10,3.29a104.54,104.54,0,0,0,20,3.46v.3H405v-.3a104.54,104.54,0,0,0,20-3.46c3.41-.93,6.74-2,10-3.29A104,104,0,0,0,465,175c21.44-18.34,35-45.18,35-75S486.44,43.3,465,25ZM10,100A88.13,88.13,0,0,1,35,38.67V161.33A88.13,88.13,0,0,1,10,100Zm35,70.3V29.7A93.89,93.89,0,0,1,65,17.86V182.14A93.89,93.89,0,0,1,45,170.3Zm30,15.53V14.17a94.87,94.87,0,0,1,20-3.83V189.66A94.87,94.87,0,0,1,75,185.83ZM105,190V10h20V190Zm30,0V10h20V190Zm30,0V10h20V190Zm30,0V10h20V190Zm30,0V10h20V190Zm30,0V10h20V190Zm30,0V10h20V190Zm30,0V10h20V190Zm30,0V10h20V190Zm30,0V10h20V190Zm30-.34V10.34a94.87,94.87,0,0,1,20,3.83V185.83A94.87,94.87,0,0,1,405,189.66Zm30-7.52V17.86A93.89,93.89,0,0,1,455,29.7V170.3A93.89,93.89,0,0,1,435,182.14Zm30-20.81V38.67a87.73,87.73,0,0,1,0,122.66Z"/></svg>