<svg id="shape" xmlns="http://www.w3.org/2000/svg" viewBox="0 0 500 200"><title>shape</title><path d="M488.16,20.8C482.09,11.08,474.09,4.54,465,1.67A35.66,35.66,0,0,0,455,0c-.26,0-.52,0-.78,0A146.43,146.43,0,0,0,435,1.27Q429.87,2,425,3a152.24,152.24,0,0,0-20,5.59c-3.43,1.21-6.76,2.52-10,3.89a218.91,218.91,0,0,0-20,9.81c-2.5,1.37-4.93,2.76-7.3,4.14L365,27.61l-1.35.61c-5.25,2.37-11.41,5.15-18.65,7.67-3.13,1.08-6.45,2.12-10,3a126.34,126.34,0,0,1-20,3.58q-4.8.48-10,.59a146,146,0,0,1-20-1c-3.23-.37-6.57-.86-10-1.47A193.65,193.65,0,0,1,255,36c-1.43-.41-2.87-.83-4.34-1.29L245,33q-10.33-3.12-20-6-5.08-1.49-10-2.88-10.35-2.94-20-5.44-5.08-1.3-10-2.48c-6.91-1.64-13.56-3.07-20-4.26-3.39-.62-6.72-1.18-10-1.66-6.89-1-13.54-1.71-20-2.05-3.38-.17-6.71-.25-10-.22a136.76,136.76,0,0,0-20,1.6q-5,.79-10,2c-3.45.84-6.88,1.82-10.29,3S78.08,17.07,75,18.43a105.92,105.92,0,0,0-10,5,97.42,97.42,0,0,0-20,15A105,105,0,0,0,35,49.72c-11,14.34-18.54,31-26.25,48.05C-3.63,124.94-2.74,157.52,11,178.84c6.17,9.6,14.47,16.1,24,19a40.53,40.53,0,0,0,10,1.74c.59,0,1.19.06,1.79.06q4,.33,7.79.33a93.1,93.1,0,0,0,10.42-.6,97,97,0,0,0,10-1.65,126.21,126.21,0,0,0,20-6.3c3.39-1.36,6.72-2.83,10-4.35,4.71-2.18,9.34-4.49,13.93-6.78l6.07-3c2.8-1.38,5.58-2.71,8.39-4l1.61-.75a204.13,204.13,0,0,1,20-8.14c3.3-1.12,6.63-2.14,10-3a130.86,130.86,0,0,1,20-3.71c3.27-.34,6.59-.56,10-.65a140.66,140.66,0,0,1,20,.93q4.89.57,10,1.48a200.3,200.3,0,0,1,20,4.71c.92.26,1.83.52,2.76.8l7.24,2.18q10.23,3,20,5.8,5.06,1.42,10,2.77,10.28,2.78,20,5.14,5.07,1.23,10,2.34,10.33,2.32,20,4.06c3.4.61,6.73,1.15,10,1.64,7,1,13.64,1.81,20,2.26q5.13.36,10,.45l3.05,0a130.55,130.55,0,0,0,16.95-1,94.85,94.85,0,0,0,10-1.83,73.64,73.64,0,0,0,11.87-3.87Q421,183.16,425,181a111,111,0,0,0,10-6.06,132.75,132.75,0,0,0,20-16.86c2.57-2.62,5.1-5.37,7.59-8.28.81-.95,1.61-1.91,2.41-2.89A200.14,200.14,0,0,0,492.46,102C504,78.15,502.2,43.29,488.16,20.8ZM35,187.28c-7.34-3.13-12.38-8.81-15.62-13.85-11.95-18.58-12.56-47.32-1.53-71.51v0C23.38,89.66,28.64,78,35,67.48Zm30,2a81.86,81.86,0,0,1-17.57.4l-.43,0c-.68,0-1.34,0-2-.08V53.19a88.76,88.76,0,0,1,20-18Zm30-8.69a128.43,128.43,0,0,1-20,6.84v-158A109.35,109.35,0,0,1,87.94,24.1c2.34-.8,4.7-1.49,7.06-2.13Zm30-14.39c-3.54,1.68-7.08,3.44-10.53,5.16-3.13,1.57-6.29,3.14-9.47,4.67V19.76A121.47,121.47,0,0,1,125,18ZM155,154a194.43,194.43,0,0,0-20,7.58V18.25c6.34.36,13,1.11,20,2.2Zm30-6.28a143,143,0,0,0-20,3.48V22.2c6.34,1.22,13,2.69,20,4.39Zm30,.16a146.71,146.71,0,0,0-20-.8v-118c6.36,1.65,13,3.48,20,5.47Zm30,5.87a203,203,0,0,0-20-4.48V37.48q9.58,2.81,20,6Zm30,8.74q-9.54-2.68-20-5.81V46.38a198.81,198.81,0,0,0,20,4.43Zm30,7.91q-9.44-2.3-20-5.15V52.17A156.59,156.59,0,0,0,305,53ZM335,177c-6.17-1.14-12.82-2.52-20-4.15V52.49a139.76,139.76,0,0,0,20-3.3Zm30,4.2c-6-.5-12.61-1.3-20-2.47V46.39a187.44,187.44,0,0,0,20-7.81Zm30-.45a115.29,115.29,0,0,1-20,1v-148c6.22-3.57,12.87-7.12,20-10.35Zm30-11.27A92.44,92.44,0,0,1,413,175.71a68.56,68.56,0,0,1-7.95,2.84V19.23a145.35,145.35,0,0,1,20-6Zm30-26.22a139.83,139.83,0,0,1-20,19.25V11.38A134.76,134.76,0,0,1,454.22,10c.27,0,.52,0,.78,0Zm28.43-45.56-.07.16A192.74,192.74,0,0,1,465,130.34v-118c6.77,3.1,11.55,8.76,14.68,13.77C491.86,45.6,493.51,77,483.43,97.65Z"/></svg>