<svg id="shape" xmlns="http://www.w3.org/2000/svg" viewBox="0 0 500 200"><title>shape</title><path d="M488.16,20.8C479.79,7.39,467.73,0,454.22,0,417.9,0,390.11,13.32,367.7,26.4l-4.05,1.82c-20.42,9.23-54.58,24.67-113,6.48C176.88,12.33,129.39-.6,84.71,14.64,39.26,30.14,24.44,63,8.75,97.77-3.63,124.94-2.74,157.52,11,178.84c8.6,13.37,21.31,20.77,35.82,20.84q4,.33,7.79.33c24.87,0,44.91-10,64.35-19.68,5-2.47,9.65-4.8,14.46-7,33.21-15.69,65.36-23.11,114.37-8.36,52.55,15.93,96.43,26.67,130.29,26.67,14.92,0,27.91-2.09,38.82-6.74,16.38-7,31.77-18.8,45.72-35.12A198.46,198.46,0,0,0,492.46,102C504,78.15,502.2,43.29,488.16,20.8Z"/></svg>