<svg id="shape" xmlns="http://www.w3.org/2000/svg" viewBox="0 0 500 200"><title>shape</title><path d="M488.16,20.8C479.79,7.39,467.73,0,454.22,0,417.9,0,390.11,13.32,367.7,26.4l-4.05,1.82c-20.42,9.23-54.59,24.67-113,6.48C176.88,12.33,129.39-.6,84.71,14.64,39.26,30.14,24.44,63,8.75,97.78-3.63,124.94-2.74,157.52,11,178.84c8.6,13.37,21.31,20.77,35.82,20.84q4,.33,7.79.33c24.87,0,44.91-10,64.35-19.68,5-2.47,9.65-4.8,14.46-7,33.21-15.69,65.37-23.11,114.37-8.36,52.55,15.93,96.43,26.67,130.29,26.67,14.92,0,27.91-2.09,38.82-6.74,16.38-7,31.77-18.8,45.72-35.12A198.46,198.46,0,0,0,492.46,102C504,78.15,502.2,43.29,488.16,20.8Zm-4.73,76.85-.07.16c-16.43,37-42.75,66.11-70.41,77.9-20.58,8.78-54.48,12.39-162.3-20.3-44.56-13.42-79.77-10.84-121.46,8.85-4.92,2.24-9.9,4.72-14.72,7.12-20.24,10.09-41.18,20.52-67,18.32l-.43,0c-14.19,0-22.85-8.83-27.62-16.25-11.95-18.58-12.56-47.32-1.53-71.51v0C33.27,67.72,46.59,38.21,87.94,24.1A116,116,0,0,1,126.17,18c30.49,0,67.11,9.76,121.55,26.27,62,19.31,99.76,2.24,120-6.93L372,35.44a3.6,3.6,0,0,0,.52-.26C393.79,22.73,420.15,10,454.22,10c12.74,0,20.87,8.75,25.46,16.09C491.86,45.6,493.51,77,483.43,97.65Z"/></svg>